<svg xmlns="http://www.w3.org/2000/svg" viewBox="0 0 64 64" width="200" height="200">
  <circle cx="32" cy="32" r="30" fill="#fff"/>
  <path d="M32 2C15.4 2 2 15.4 2 32s13.4 30 30 30 30-13.4 30-30S48.6 2 32 2zm0 58c-15.5 0-28-12.5-28-28S16.5 4 32 4s28 12.5 28 28-12.5 28-28 28z" fill="#000"/>
  <path d="M20 24c-4.4 0-8 3.6-8 8s3.6 8 8 8 8-3.6 8-8-3.6-8-8-8zm24 0c-4.4 0-8 3.6-8 8s3.6 8 8 8 8-3.6 8-8-3.6-8-8-8z" fill="#000"/>
  <path d="M32 36c-4.4 0-8 3.6-8 8s3.6 8 8 8 8-3.6 8-8-3.6-8-8-8z" fill="#000"/>
</svg>